<svg width="308" height="308" viewBox="0 0 308 308" fill="none" xmlns="http://www.w3.org/2000/svg">
<path d="M154 0C68.9512 0 0 68.9512 0 154C0 239.049 68.9512 308 154 308C239.049 308 308 239.049 308 154C308 68.9512 239.049 0 154 0ZM154 280C84.1309 280 28 223.869 28 154C28 84.1309 84.1309 28 154 28C223.869 28 280 84.1309 280 154C280 223.869 223.869 280 154 280Z" fill="#915EFF"/>
<path d="M154 56C112.047 56 78 90.0471 78 132C78 173.953 112.047 208 154 208C195.953 208 230 173.953 230 132C230 90.0471 195.953 56 154 56ZM154 180C127.49 180 106 158.51 106 132C106 105.49 127.49 84 154 84C180.51 84 202 105.49 202 132C202 158.51 180.51 180 154 180Z" fill="#915EFF"/>
<path d="M154 112C143.507 112 135 120.507 135 131C135 141.493 143.507 150 154 150C164.493 150 173 141.493 173 131C173 120.507 164.493 112 154 112Z" fill="#915EFF"/>
<path d="M154 224C143.507 224 135 232.507 135 243C135 253.493 143.507 262 154 262C164.493 262 173 253.493 173 243C173 232.507 164.493 224 154 224Z" fill="#915EFF"/>
<path d="M243 135C243 124.507 234.493 116 224 116C213.507 116 205 124.507 205 135C205 145.493 213.507 154 224 154C234.493 154 243 145.493 243 135Z" fill="#915EFF"/>
<path d="M103 135C103 124.507 94.4934 116 84 116C73.5066 116 65 124.507 65 135C65 145.493 73.5066 154 84 154C94.4934 154 103 145.493 103 135Z" fill="#915EFF"/>
</svg>